<?xml version="1.0" encoding="utf-8"?>
<!-- Generator: Adobe Illustrator 21.0.0, SVG Export Plug-In . SVG Version: 6.00 Build 0)  -->
<svg version="1.1" id="Layer_1" xmlns="http://www.w3.org/2000/svg" xmlns:xlink="http://www.w3.org/1999/xlink" x="0px" y="0px"
	 viewBox="0 0 442.4 248.6" style="enable-background:new 0 0 442.4 248.6;" xml:space="preserve">
<style type="text/css">
	.st0{fill:#FFFFFF;}
	.st1{fill:#EA2627;}
	.st2{fill:#231F20;}
</style>
<g>
	<path d="M63.5,24.2C54.9,2.3,34.8-2.8,18.7,7.4C2.5,17.8-1.8,34.5,6.4,53.9C13.6,74,37.6,96.8,44.5,121l34-69.5
		C70.8,43.8,67.8,34.8,63.5,24.2z"/>
	<path d="M142.7,24.2c8.6-21.8,28.7-27,44.8-16.8c16.2,10.4,20.5,27.1,12.3,46.5c-7.2,20.2-31.2,42.9-38.1,67.1l-34-69.5
		C135.4,43.8,138.4,34.8,142.7,24.2z"/>
	<path d="M164.9,100.1c0.2,12.8-4.8,31.3-15.5,48.2c-10.6,16.6-26.9,31.7-46.2,31.4c-19.4,0.3-35.7-14.7-46.2-31.4
		c-10.7-16.9-15.7-35.4-15.5-48.2l37.2-48.6c7.5-1.5,15.8-2,24.6-1.9c8.7,0,17.1,0.5,24.6,1.9L164.9,100.1z"/>
	<g>
		<path d="M145.9,197.5c-4.6-9.4-10.2-17.5-16.3-24.4c-5.2-11-14.6-20.2-25.9-20.6c-10.6-0.5-19.8,7-25.3,16.7
			c-8.1,7.8-15.5,17.6-21.3,29.4c-4.1,8.5-5.1,17.8-3.2,19.7c1.9,1.9,7.3-3,12.4-9.9c2.3-3.2,4.6-6.1,7.1-8.8
			c0.5,1.4,1.1,2.7,1.9,3.9c-1.8,7.6-3.5,15.3-5.2,23.1c-1.7,8.1,2.2,11.7,9.5,10.4c7.3-1.4,15.4-6.4,17.4-13.2c1-3.4,2-6.8,3-10.1
			c1.2,0.1,2.5,0.2,3.8,0.2c1.3,0,2.5,0.1,3.7,0.1c1,3.4,2,6.9,2.9,10.4c2,7,7,12.6,14.1,14.6c7.1,2,13.6-1.4,12-9.6
			c-1.6-8-3.3-15.8-5-23.6c0.6-0.9,1.2-2,1.6-3.1c1.3,1.6,2.5,3.2,3.7,4.9c5.2,7,10.4,11.9,12.3,9.9
			C151,215.4,149.9,206,145.9,197.5z"/>
	</g>
	<g>
		<circle class="st0" cx="62.8" cy="98" r="17.4"/>
		<path d="M62.8,98l8.5-11.1C69,85.1,66.1,84,62.8,84c-7.8,0-14,6.3-14,14s6.3,14,14,14c7.8,0,14-6.3,14-14c0-1.6-0.3-3.2-0.8-4.6
			L62.8,98z"/>
	</g>
	<g>
		<circle class="st0" cx="141" cy="98" r="17.4"/>
		<path d="M141,98l8.5-11.1c-2.4-1.8-5.3-2.9-8.5-2.9c-7.8,0-14,6.3-14,14s6.3,14,14,14c7.8,0,14-6.3,14-14c0-1.6-0.3-3.2-0.8-4.6
			L141,98z"/>
	</g>
	<path class="st0" d="M115.8,112.5c-1-1.7-2.7-3.2-5-4.3c-2.3-1.1-5.3-1.7-8.6-1.7c-3.4,0-6.3,0.6-8.6,1.7c-2.3,1.1-4,2.7-5,4.3
		c-0.4,0.7-0.4,1.4,0,2.1c0.8,1.3,2.1,3.4,4.1,5.3c1,0.9,2.3,1.8,3.9,2.6c1.6,0.7,3.5,1.2,5.6,1.2c0,0,0,0,0,0c2.1,0,4-0.5,5.6-1.2
		c2.4-1.1,4-2.6,5.3-4c1.3-1.4,2.1-2.9,2.7-3.8C116.2,114,116.2,113.2,115.8,112.5z"/>
	<path class="st0" d="M97.5,101.7c0.3,0.6,0.9,1.1,1.7,1.5c0.8,0.4,1.8,0.6,3,0.6c1.2,0,2.2-0.2,3-0.6c0.8-0.4,1.4-0.9,1.7-1.5
		c0.1-0.2,0.1-0.5,0-0.7c-0.3-0.5-0.7-1.2-1.4-1.8c-0.4-0.3-0.8-0.6-1.3-0.9c-0.5-0.2-1.2-0.4-1.9-0.4c0,0,0,0,0,0
		c-0.7,0-1.4,0.2-1.9,0.4c-0.8,0.4-1.4,0.9-1.8,1.4c-0.4,0.5-0.7,1-0.9,1.3C97.3,101.2,97.3,101.4,97.5,101.7z"/>
	<path class="st1" d="M98,121.5c1.1,0.5,2.6,0.8,4.1,0.8c0,0,0,0,0,0c1.5,0,2.9-0.3,4.1-0.8c1.5-0.6,2.5-1.4,3.4-2.2
		c-0.2-0.2-0.4-0.3-0.6-0.5c-0.8-0.6-1.7-1.2-2.8-1.7c-1.1-0.5-2.6-0.8-4.1-0.8c0,0,0,0,0,0c-1.5,0-2.9,0.3-4.1,0.8
		c-1.5,0.6-2.5,1.4-3.4,2.2c0.2,0.2,0.4,0.3,0.6,0.5C96,120.5,96.9,121.1,98,121.5z"/>
	<rect x="76.8" y="176.1" width="53.2" height="11.8"/>
</g>
<path class="st0" d="M128.3,241.7c-1.4,0-2.9-0.2-4.5-0.6c-7.6-2.2-13.5-8.2-15.8-16.2c-0.8-2.9-1.6-5.8-2.5-8.7
	c-0.7,0-1.4,0-2.1-0.1c-0.6,0-1.3-0.1-2-0.1c-0.8,2.8-1.6,5.5-2.4,8.3c-2.4,8.1-11.6,13.4-19.2,14.9c-5.6,1-8.6-0.7-10.2-2.3
	c-1.6-1.7-3.3-4.9-2-10.9c1.6-7.3,3.3-14.8,5-22.2c0,0,0,0,0,0c-1.6,1.9-3.2,3.9-4.6,6c-3.7,5-9,11-12.9,11.3
	c-1.2,0.1-2.3-0.3-3-1.1c-3.2-3.2-1.2-14.1,2.7-22.4c5-10.1,11.2-19.1,18.6-26.8c-6.8-5.4-13.1-12.7-18.6-21.3
	c-5.5-8.7-9.8-18.3-12.6-27.9c-3.7-12.9-12.4-25.4-20.8-37.5c-7.1-10.3-13.9-20-17.3-29.4C-4.4,34.3,0.4,16.3,17.4,5.4
	c8.6-5.4,18.2-6.8,27-4c9.4,3.1,17,10.8,21.3,21.9c0.5,1.1,0.9,2.3,1.4,3.4c3.4,8.5,6.3,15.9,12.3,22.3c6.6-1.2,14.2-1.8,23.8-1.8
	c0,0,0.1,0,0.1,0c9.5,0,17,0.6,23.7,1.8c6-6.4,8.9-13.8,12.3-22.3c0.4-1.1,0.9-2.3,1.4-3.4c4.3-11,11.9-18.8,21.3-21.8
	c8.8-2.9,18.4-1.5,27,3.9c17.1,10.9,21.9,28.9,13.2,49.3c-3.4,9.4-10.1,19.1-17.3,29.4c-8.4,12.1-17.1,24.6-20.8,37.5
	c-2.8,9.6-7.1,19.2-12.6,27.9l0,0c-5.8,9.1-12.6,16.8-19.9,22.3c0,0,0,0,0,0c6.5,7.3,12,15.6,16.5,24.7c3.9,8.3,6,19.3,2.8,22.5
	c-0.8,0.8-1.9,1.2-3,1.1c-3.9-0.3-9.1-6.3-12.8-11.3c-0.2-0.2-0.3-0.4-0.5-0.7c1.5,6.9,3,13.9,4.4,20.7c0.8,4.2-0.2,7.8-2.7,10.2
	C134.1,240.8,131.4,241.7,128.3,241.7z M109.2,211.5l0.5,1.7c1,3.4,2,6.9,2.9,10.4c1.8,6.5,6.4,11.3,12.5,13c3.2,0.9,6.1,0.5,7.8-1
	c1.7-1.6,1.6-4.1,1.3-5.9c-1.6-7.7-3.2-15.6-5-23.5l-0.2-1l0.6-0.8c0.5-0.8,1-1.7,1.4-2.7l1.5-3.8l2.5,3.2c1.3,1.6,2.5,3.3,3.7,5
	c4.6,6.3,7.6,8.6,8.8,9.2c0.5-2.2-0.2-9.1-3.8-16.7c-4.3-8.8-9.7-16.8-16-23.8l-0.2-0.3l-0.1-0.3c-0.3-0.6-0.6-1.3-1-1.9l-1-1.8
	l1.7-1.2c7.3-5.2,14.3-12.9,20.2-22.1c5.3-8.3,9.4-17.5,12.1-26.7c3.9-13.6,12.8-26.4,21.5-38.9c7-10,13.5-19.5,16.7-28.4l0-0.1
	c7.8-18.4,3.8-33.9-11.4-43.6c-7.4-4.7-15.5-5.9-23-3.4c-8,2.6-14.6,9.4-18.4,19.1c-0.5,1.2-0.9,2.3-1.4,3.4
	c-3.7,9.4-7,17.5-14.2,24.7l-0.9,0.9l-1.2-0.2c-6.6-1.3-14.2-1.9-24-1.9c-0.1,0-0.1,0-0.2,0c-9.8,0-17.4,0.6-24,1.9L77.8,54
	l-0.9-0.9c-7.2-7.2-10.5-15.3-14.2-24.7c-0.4-1.1-0.9-2.2-1.4-3.4C57.5,15.3,51,8.5,42.9,5.9c-7.5-2.4-15.6-1.2-23,3.5
	C4.8,19.1,0.7,34.6,8.5,53l0,0.1c3.2,8.9,9.8,18.3,16.7,28.4c8.6,12.4,17.5,25.3,21.5,38.9c2.6,9.2,6.8,18.4,12.1,26.7
	c5.7,9,12.5,16.5,19.5,21.6l2.2,1.6l-1.9,1.9c-7.8,7.8-14.4,17-19.5,27.5c-3.6,7.6-4.2,14.5-3.8,16.6c1.2-0.6,4.3-2.9,9-9.2
	c2.2-3.1,4.7-6.2,7.3-9l2.6-2.9l1.3,3.7c0.4,1.2,1,2.3,1.7,3.3l0.6,0.8l-0.2,1c-1.8,7.7-3.6,15.5-5.2,23.1c-0.6,3.1-0.4,5.5,0.8,6.7
	c1.4,1.4,4,1.3,6,0.9c6.4-1.2,13.8-5.6,15.6-11.6c1-3.4,2-6.8,3-10.1l0.5-1.8l1.9,0.1c1.3,0.1,2.5,0.2,3.7,0.2
	c1.1,0,2.3,0.1,3.7,0.1L109.2,211.5z M55.6,216.8C55.6,216.8,55.6,216.8,55.6,216.8L55.6,216.8z"/>
<g>
	<path class="st2" d="M202.2,230.2c0.9,0,1.6,0.3,2.1,0.9c0.5,0.6,0.8,1.3,0.8,2.2c0,0.9-0.3,1.6-0.8,2.1c-0.5,0.5-1.2,0.8-2.1,0.8
		h-9.8c-2.7,0-5.4-0.5-7.9-1.5c-2.5-1-4.7-2.5-6.6-4.4c-1.9-2-3.4-4.2-4.5-6.7c-1-2.5-1.6-5.1-1.6-7.8v-15.6c0-2.8,0.5-5.5,1.6-8
		c1.1-2.5,2.5-4.6,4.4-6.5c1.8-1.9,4-3.3,6.5-4.4c2.5-1.1,5.2-1.6,8-1.6h9.7c0.8,0,1.6,0.3,2.1,0.9c0.6,0.6,0.9,1.3,0.9,2.2
		c0,0.9-0.3,1.6-0.9,2.1c-0.6,0.5-1.3,0.8-2.1,0.8h-9.7c-2,0-3.9,0.4-5.7,1.2c-1.8,0.8-3.3,1.8-4.6,3.1c-1.3,1.3-2.3,2.8-3.1,4.6
		c-0.8,1.8-1.2,3.7-1.2,5.7v15.6c0,4,1.4,7.4,4.3,10.2c1.3,1.5,2.8,2.5,4.6,3.2c1.7,0.7,3.6,1,5.7,1H202.2z"/>
	<path class="st2" d="M227.2,199.3c1.1,0,2.3,0.2,3.4,0.7c1.1,0.4,2.1,1.1,3,1.9c1.7,1.8,2.6,4,2.6,6.5v24.8c0,0.9-0.3,1.6-0.8,2.1
		c-0.5,0.5-1.2,0.8-2.1,0.8c-1.5,0-2.4-0.6-2.9-1.7c-1.9,1.2-4,1.7-6.4,1.7h-3.4c-1.7,0-3.3-0.3-4.8-0.9c-1.5-0.6-2.8-1.5-3.9-2.6
		c-1.1-1.1-2-2.4-2.6-3.9c-0.7-1.5-1-3.1-1-4.8c0-1.7,0.3-3.3,0.9-4.7c0.6-1.4,1.5-2.7,2.6-3.9c1.1-1.1,2.5-2,4-2.7
		c1.5-0.6,3.1-0.9,4.8-0.9h7.6c0.7,0,1.2-0.2,1.6-0.6h-0.1c0.3-0.3,0.5-0.9,0.5-1.7v-1c0-1.1-0.3-1.8-0.9-2.4
		c-0.6-0.6-1.3-0.9-2.2-0.9h-13.3c-0.9,0-1.6-0.3-2.1-0.8c-0.6-0.5-0.9-1.2-0.9-2.1c0-0.9,0.3-1.6,0.9-2.1c0.6-0.5,1.3-0.8,2.1-0.8
		H227.2z M228.5,228.6c1.2-1.2,1.9-2.7,1.9-4.6v-6.5c-0.3,0.1-0.6,0.2-1,0.2c-0.4,0-0.7,0-1.1,0h-7.6c-1.8,0-3.3,0.6-4.5,1.8
		c-1.2,1.2-1.8,2.7-1.8,4.5c0,0.9,0.2,1.7,0.5,2.5c0.3,0.8,0.8,1.5,1.3,2c0.6,0.6,1.2,1,2,1.4c0.8,0.3,1.6,0.5,2.5,0.5h3.4
		c0.8,0,1.7-0.2,2.4-0.5C227.3,229.6,227.9,229.2,228.5,228.6z"/>
	<path class="st2" d="M263,222.1c1.7,1.6,2.5,3.6,2.5,6c0,2.1-0.8,4-2.5,5.7c-1.5,1.6-3.4,2.4-5.8,2.4h-13.8c-0.9,0-1.5-0.3-2.1-0.8
		c-0.5-0.5-0.8-1.2-0.8-2.1c0-0.8,0.3-1.5,0.8-2.1c0.5-0.5,1.2-0.8,2.1-0.8h13.8c0.3,0,0.6-0.1,0.9-0.3c0.3-0.2,0.6-0.3,0.9-0.5
		c0.2-0.2,0.3-0.5,0.4-0.8c0-0.3,0.1-0.5,0.1-0.8c0-0.6-0.2-1.1-0.6-1.8c-2.4-2.1-4.9-4.2-7.4-6.4c-2.5-2.2-4.9-4.3-7.3-6.5
		c-1.7-1.6-2.5-3.6-2.5-6c0-1.1,0.2-2.1,0.7-3.1c0.5-1,1-1.9,1.7-2.6c1.5-1.6,3.4-2.4,5.8-2.4h12c0.8,0,1.6,0.3,2.1,0.8
		c0.6,0.5,0.9,1.2,0.9,2.1c0,1-0.3,1.7-0.9,2.2c-0.6,0.5-1.3,0.8-2.1,0.8h-12c-0.7,0-1.3,0.2-1.7,0.7c-0.4,0.5-0.6,1.1-0.6,1.6
		c0,0.8,0.2,1.3,0.5,1.6c0,0.1,1.3,1.2,3.8,3.3C254.4,214.5,258.1,217.8,263,222.1z"/>
	<path class="st2" d="M286,199.3c1.9,0,3.8,0.4,5.6,1.1c1.8,0.7,3.4,1.8,4.7,3.2c1.5,1.4,2.6,3,3.3,4.7c0.7,1.7,1,3.6,1,5.6v7.6
		c0,2.1-0.4,4-1.2,5.7c-0.8,1.8-1.8,3.3-3.1,4.6c-1.3,1.3-2.9,2.4-4.6,3.1c-1.8,0.7-3.7,1.1-5.7,1.1c-1.6,0-3.2-0.2-4.7-0.7
		c-1.5-0.5-2.9-1.2-4.1-2.1v12.3c0,0.8-0.3,1.5-0.8,2.1c-0.5,0.5-1.2,0.8-2.1,0.8c-0.9,0-1.6-0.3-2.1-0.8c-0.6-0.5-0.9-1.2-0.9-2.1
		v-43.5c0-0.9,0.3-1.6,0.9-2.1c0.6-0.5,1.3-0.8,2.1-0.8c0.8,0,1.5,0.3,2.1,0.8c0.6,0.5,0.8,1.2,0.8,2.1
		C279.8,200.3,282.7,199.3,286,199.3z M294.8,214c0-1.1-0.2-2.2-0.7-3.3c-0.4-1.1-1.1-2.1-1.9-2.9h0.1c-1.7-1.7-3.9-2.5-6.4-2.5
		c-2.4,0-4.5,0.9-6.2,2.5c-1.7,1.8-2.5,3.9-2.5,6.2v7.6c0,1.2,0.2,2.3,0.7,3.4c0.5,1.1,1.1,2,1.9,2.8c0.8,0.8,1.7,1.4,2.8,1.9
		c1.1,0.5,2.2,0.7,3.4,0.7c1.2,0,2.4-0.2,3.5-0.7c1.1-0.5,2-1.1,2.8-1.9c0.8-0.8,1.4-1.7,1.9-2.8c0.5-1.1,0.7-2.2,0.7-3.4V214z"/>
	<path class="st2" d="M323.3,199.3c1.1,0,2.3,0.2,3.4,0.7c1.1,0.4,2.1,1.1,3,1.9c1.7,1.8,2.6,4,2.6,6.5v24.8c0,0.9-0.3,1.6-0.8,2.1
		c-0.5,0.5-1.2,0.8-2.1,0.8c-1.5,0-2.4-0.6-2.9-1.7c-1.9,1.2-4,1.7-6.4,1.7h-3.4c-1.7,0-3.3-0.3-4.8-0.9c-1.5-0.6-2.8-1.5-3.9-2.6
		c-1.1-1.1-2-2.4-2.6-3.9c-0.6-1.5-1-3.1-1-4.8c0-1.7,0.3-3.3,0.9-4.7c0.6-1.4,1.5-2.7,2.6-3.9c1.1-1.1,2.5-2,4-2.7
		c1.5-0.6,3.1-0.9,4.8-0.9h7.6c0.7,0,1.2-0.2,1.6-0.6H326c0.3-0.3,0.5-0.9,0.5-1.7v-1c0-1.1-0.3-1.8-0.9-2.4
		c-0.6-0.6-1.3-0.9-2.2-0.9H310c-0.9,0-1.6-0.3-2.1-0.8c-0.6-0.5-0.9-1.2-0.9-2.1c0-0.9,0.3-1.6,0.9-2.1c0.6-0.5,1.3-0.8,2.1-0.8
		H323.3z M324.6,228.6c1.2-1.2,1.9-2.7,1.9-4.6v-6.5c-0.3,0.1-0.6,0.2-1,0.2c-0.4,0-0.7,0-1.1,0h-7.6c-1.8,0-3.3,0.6-4.5,1.8
		c-1.2,1.2-1.8,2.7-1.8,4.5c0,0.9,0.2,1.7,0.5,2.5c0.3,0.8,0.8,1.5,1.3,2c0.6,0.6,1.2,1,2,1.4c0.8,0.3,1.6,0.5,2.5,0.5h3.4
		c0.8,0,1.7-0.2,2.4-0.5C323.4,229.6,324.1,229.2,324.6,228.6z"/>
	<path class="st2" d="M356.7,199.3c0.8,0,1.5,0.3,2.1,0.8c0.5,0.5,0.8,1.2,0.8,2.1c0,0.9-0.3,1.6-0.8,2.1c-0.5,0.6-1.2,0.8-2.1,0.8
		h-4.8c-0.9,0-1.7,0.2-2.4,0.5c-0.8,0.3-1.4,0.7-2,1.3c-1.3,1.4-1.9,2.9-1.9,4.5v21.8c0,0.9-0.3,1.6-0.9,2.1
		c-0.6,0.5-1.3,0.8-2.1,0.8c-0.7,0-1.4-0.3-2-0.8c-0.6-0.5-0.9-1.2-0.9-2.1v-31c0-0.9,0.3-1.6,0.9-2.1c0.6-0.5,1.3-0.8,2-0.8
		c0.7,0,1.3,0.2,1.8,0.5c0.5,0.3,0.8,0.8,1.1,1.3c1.9-1.2,4.1-1.8,6.5-1.8H356.7z"/>
	<path class="st2" d="M394.7,230.2c0.9,0,1.6,0.3,2.1,0.9c0.5,0.6,0.8,1.3,0.8,2.2c0,0.9-0.3,1.6-0.8,2.1c-0.5,0.5-1.2,0.8-2.1,0.8
		h-9.8c-2.7,0-5.4-0.5-7.9-1.5c-2.5-1-4.7-2.5-6.6-4.4c-1.9-2-3.4-4.2-4.5-6.7c-1-2.5-1.6-5.1-1.6-7.8v-15.6c0-2.8,0.5-5.5,1.6-8
		c1.1-2.5,2.5-4.6,4.4-6.5c1.8-1.9,4-3.3,6.5-4.4c2.5-1.1,5.2-1.6,8-1.6h9.7c0.8,0,1.6,0.3,2.1,0.9c0.6,0.6,0.9,1.3,0.9,2.2
		c0,0.9-0.3,1.6-0.9,2.1c-0.6,0.5-1.3,0.8-2.1,0.8h-9.7c-2,0-3.9,0.4-5.7,1.2c-1.8,0.8-3.3,1.8-4.6,3.1c-1.3,1.3-2.3,2.8-3.1,4.6
		c-0.8,1.8-1.2,3.7-1.2,5.7v15.6c0,4,1.4,7.4,4.3,10.2c1.3,1.5,2.8,2.5,4.6,3.2c1.7,0.7,3.6,1,5.7,1H394.7z"/>
	<path class="st2" d="M439.3,204.9c0.7,0,1.5,0.3,2.2,1c0.5,0.6,0.8,1.3,0.8,2.1v7.8c0,2.8-0.5,5.4-1.6,7.9
		c-1.1,2.5-2.5,4.7-4.4,6.5c-1.9,1.9-4,3.3-6.5,4.4c-2.5,1.1-5.1,1.6-8,1.6c-2.8,0-5.4-0.5-7.9-1.6c-2.5-1.1-4.7-2.5-6.6-4.4
		c-1.9-1.8-3.3-4-4.4-6.5c-1.1-2.5-1.6-5.1-1.6-7.9v-15.6c0-2.8,0.5-5.5,1.6-8c1.1-2.5,2.5-4.6,4.4-6.5c1.9-1.9,4.1-3.3,6.6-4.4
		c2.5-1.1,5.1-1.6,7.9-1.6c3.9,0,7.5,1,10.7,3c3.2,2,5.7,4.7,7.5,8.2v-0.1c0.4,0.7,0.5,1.5,0.3,2.2c-0.2,0.8-0.7,1.4-1.5,1.8
		c-0.8,0.5-1.6,0.5-2.3,0.3c-0.7-0.3-1.3-0.8-1.7-1.5c-1.3-2.5-3.1-4.5-5.4-5.9c-2.2-1.4-4.8-2.1-7.6-2.1c-2,0-3.9,0.4-5.6,1.2
		c-1.7,0.8-3.3,1.8-4.6,3.1c-1.3,1.3-2.4,2.8-3.1,4.6c-0.7,1.8-1.1,3.7-1.1,5.7v15.6c0,2,0.4,3.9,1.1,5.6c0.8,1.7,1.8,3.3,3.1,4.6
		c1.3,1.3,2.9,2.4,4.6,3.1c1.7,0.7,3.6,1.1,5.6,1.1c2,0,3.9-0.4,5.7-1.1c1.8-0.7,3.3-1.8,4.6-3.1c1.3-1.3,2.3-2.9,3.1-4.6
		c0.8-1.7,1.2-3.6,1.2-5.6v-4.9h-5.5c-0.9,0-1.6-0.3-2.1-0.8c-0.5-0.5-0.8-1.2-0.8-2.1c0-0.8,0.3-1.6,0.8-2.2
		c0.5-0.6,1.2-0.9,2.1-0.9H439.3z"/>
</g>
</svg>
