<?xml version="1.0" encoding="utf-8"?>
<!-- Generator: Adobe Illustrator 21.0.0, SVG Export Plug-In . SVG Version: 6.00 Build 0)  -->
<svg version="1.1" id="Layer_1" xmlns="http://www.w3.org/2000/svg" xmlns:xlink="http://www.w3.org/1999/xlink" x="0px" y="0px"
	 viewBox="0 0 442.4 233.2" style="enable-background:new 0 0 442.4 233.2;" xml:space="preserve">
<style type="text/css">
	.st0{fill:url(#SVGID_1_);}
	.st1{fill:#6682BA;}
	.st2{fill:#FFFFFF;}
	.st3{fill:#00000E;}
</style>
<radialGradient id="SVGID_1_" cx="105.5951" cy="50.3039" r="291.0905" gradientTransform="matrix(1 0 0 1 26.5198 -9.3071)" gradientUnits="userSpaceOnUse">
	<stop  offset="0" style="stop-color:#FFFFFF"/>
	<stop  offset="0.5" style="stop-color:#4D6998"/>
	<stop  offset="1" style="stop-color:#1D1D1B"/>
</radialGradient>
<ellipse class="st0" cx="220.7" cy="116.6" rx="221.7" ry="116.6"/>
<ellipse class="st1" cx="220.7" cy="116.6" rx="213" ry="108"/>
<g>
	<path class="st2" d="M263.8,151.5c0,0,10.6-54.4,10.6-54.4c2.4-12.3,0.4-21.4-5.9-27.2c-6.1-5.6-16.4-8.3-31.6-8.3h-18.3l5.2-26.9
		c0.2-1-0.1-2.1-0.7-2.9c-0.7-0.8-1.6-1.3-2.7-1.3h-25.3c-1.7,0-3.1,1.2-3.4,2.8l-11.2,57.7c-1-6.5-3.5-12.1-7.6-16.7
		c-7.4-8.5-19.1-12.8-34.8-12.8h-49c-1.7,0-3.1,1.2-3.4,2.8L63.1,181.2c-0.2,1,0.1,2.1,0.7,2.9c0.7,0.8,1.6,1.3,2.7,1.3h25.5
		c1.7,0,3.1-1.2,3.4-2.8l5.5-28.3h18.9c9.9,0,18.3-1.1,24.8-3.2c6.7-2.2,12.8-5.8,18.2-10.9c4.4-4,8-8.5,10.8-13.4l-4.5,23.4
		c-0.2,1,0.1,2.1,0.7,2.9c0.7,0.8,1.6,1.3,2.7,1.3h25.3c1.7,0,3.1-1.2,3.4-2.8l12.5-64.1h17.3c7.4,0,9.5,1.5,10.1,2.1
		c0.5,0.6,1.6,2.6,0.4,9l-10,51.7c-0.2,1,0.1,2.1,0.7,2.9c0.7,0.8,1.6,1.3,2.7,1.3h25.7C262.1,154.3,263.5,153.1,263.8,151.5z
		 M146.8,106.6c-1.6,8.2-4.6,14-8.9,17.3c-4.4,3.4-11.4,5.1-20.8,5.1h-11.3l8.2-42h14.6c10.7,0,15,2.3,16.8,4.2
		C147.7,93.8,148.2,99.2,146.8,106.6z"/>
	<path class="st2" d="M371.8,74.4c-7.4-8.5-19.1-12.8-34.8-12.8h-49c-1.7,0-3.1,1.2-3.4,2.8L262,181.2c-0.2,1,0.1,2.1,0.7,2.9
		c0.7,0.8,1.6,1.3,2.7,1.3h25.5c1.7,0,3.1-1.2,3.4-2.8l5.5-28.3h18.9c9.9,0,18.3-1.1,24.8-3.2c6.7-2.2,12.8-5.8,18.2-10.9
		c4.5-4.1,8.2-8.8,11-13.8c2.8-5,4.8-10.6,6-16.7C381.6,94.8,379.3,82.9,371.8,74.4z M345.4,106.6c-1.6,8.2-4.6,14-8.9,17.3
		c-4.4,3.4-11.4,5.1-20.8,5.1h-11.3l8.2-42h14.6c10.7,0,15,2.3,16.8,4.2C346.4,93.8,346.9,99.2,345.4,106.6z"/>
</g>
<g>
	<path class="st3" d="M128.5,83.5c9.7,0,16.1,1.8,19.3,5.4c3.2,3.6,4,9.7,2.3,18.4c-1.8,9-5.1,15.5-10.2,19.4
		c-5,3.9-12.7,5.8-22.9,5.8h-15.5l9.5-48.9H128.5z M66.5,181.9h25.5l6-31.1h21.8c9.6,0,17.5-1,23.7-3c6.2-2,11.9-5.4,16.9-10.2
		c4.3-3.9,7.7-8.2,10.4-13c2.6-4.7,4.5-9.9,5.6-15.7c2.7-13.9,0.7-24.6-6.1-32.4c-6.8-7.7-17.5-11.6-32.2-11.6h-49L66.5,181.9z"/>
	<path class="st3" d="M195.2,34h25.3l-6,31.1h22.5c14.2,0,23.9,2.5,29.3,7.4c5.4,4.9,7,12.9,4.8,24l-10.6,54.4h-25.7l10-51.7
		c1.1-5.9,0.7-9.9-1.3-12c-2-2.1-6.2-3.2-12.7-3.2h-20.2l-13,66.9h-25.3L195.2,34z"/>
	<path class="st3" d="M327.2,83.5c9.7,0,16.1,1.8,19.3,5.4c3.2,3.6,4,9.7,2.3,18.4c-1.8,9-5.1,15.5-10.2,19.4
		c-5,3.9-12.7,5.8-22.9,5.8h-15.5l9.5-48.9H327.2z M265.2,181.9h25.5l6-31.1h21.8c9.6,0,17.5-1,23.7-3c6.2-2,11.9-5.4,16.9-10.2
		c4.3-3.9,7.7-8.2,10.4-13c2.6-4.7,4.5-9.9,5.6-15.7c2.7-13.9,0.7-24.6-6.1-32.4s-17.5-11.6-32.2-11.6h-49L265.2,181.9z"/>
</g>
</svg>
